# xmcd
#
# Track frame offsets:
#	150
#	16720
#	31022
#	47637
#	66342
#	84020
#	100337
#	121522
#	136850
#	149845
#	165737
#	182845
#	195920
#	212875
#
# Disc length: 3689 seconds
#
# Revision: 0
# Processed by: cddbd v1.5.2PL0 Copyright (c) Steve Scherf et al.
# Submitted via: audiograbber 1.83.01
#
DISCID=b30e670e
DTITLE=Various Artist - Queensland Country Showcase Vol 1
DYEAR=1900
DGENRE=Country
TTITLE0=Lynda Hansen - Out On The Town
TTITLE1=Michael Pincott - I'm A Natural Australian Country Singer
TTITLE2=Robbie Gough - The Faulty Bit
TTITLE3=Irene Fennell - Now I'm Easy
TTITLE4=The Dakotas  - Livin'  On Lovin' 
TTITLE5=Desree-Ilona Crawford - Peace In My Heart
TTITLE6=Blue Velvet - Lord How We Dreamed
TTITLE7=Desree-Ilona Crawford - Take Time
TTITLE8=Garth Winkle - China Doll
TTITLE9=Sue Howard - In The Country
TTITLE10=Robbie Gough - Last Night Was Just A One Night Stand
TTITLE11=EZ Country Travellers - EZ Country Sound
TTITLE12=Robbie Gough - Busted Arse Ringer
TTITLE13=david Vine - This Is Australia
EXTD=
EXTT0=
EXTT1=
EXTT2=
EXTT3=
EXTT4=
EXTT5=
EXTT6=
EXTT7=
EXTT8=
EXTT9=
EXTT10=
EXTT11=
EXTT12=
EXTT13=
PLAYORDER=
